HIERARCHY
ROOT Hips
{
  OFFSET 0.849866 78.6569 -0.536788
  CHANNELS 6 Xposition Yposition Zposition Zrotation Xrotation Yrotation
  JOINT Bip01_Pelvis
  {
    OFFSET 0 0 0
    CHANNELS 6 Xposition Yposition Zposition Zrotation Xrotation Yrotation
    JOINT BN_Tail_01
    {
      OFFSET -5.52397 -0.332285 0
      CHANNELS 6 Xposition Yposition Zposition Zrotation Xrotation Yrotation
      JOINT BN_Tail_02
      {
        OFFSET 6.48885 -2.032e-005 0
        CHANNELS 6 Xposition Yposition Zposition Zrotation Xrotation Yrotation
        JOINT BN_Tail_03
        {
          OFFSET 7.08759 1.016e-005 -0.00261112
          CHANNELS 6 Xposition Yposition Zposition Zrotation Xrotation Yrotation
          End Site
          {
            OFFSET 0 0 0
          }
        }
      }
    }
    JOINT Bip01_Spine
    {
      OFFSET 4.02227 0.398968 0
      CHANNELS 6 Xposition Yposition Zposition Zrotation Xrotation Yrotation
      JOINT BN_UpperArm_R_01
      {
        OFFSET 4.84413 -3.22857 -3.65581
        CHANNELS 6 Xposition Yposition Zposition Zrotation Xrotation Yrotation
        JOINT BN_Forearm_R_01
        {
          OFFSET 8.51614 0 0
          CHANNELS 6 Xposition Yposition Zposition Zrotation Xrotation Yrotation
          JOINT BN_hand_R_01
          {
            OFFSET 10.1924 0 0
            CHANNELS 6 Xposition Yposition Zposition Zrotation Xrotation Yrotation
            JOINT BN_Finger_R_02
            {
              OFFSET 14.5949 -1.43855 0.585079
              CHANNELS 6 Xposition Yposition Zposition Zrotation Xrotation Yrotation
              End Site
              {
                OFFSET 0 0 0
              }
            }
            JOINT BN_Finger_R_01
            {
              OFFSET 14.4623 0 0
              CHANNELS 6 Xposition Yposition Zposition Zrotation Xrotation Yrotation
              End Site
              {
                OFFSET 0 0 0
              }
            }
          }
        }
      }
      JOINT BN_UpperArm_L_01
      {
        OFFSET 4.84412 -3.22858 3.65557
        CHANNELS 6 Xposition Yposition Zposition Zrotation Xrotation Yrotation
        JOINT BN_Forearm_L_01
        {
          OFFSET 8.51611 0 0
          CHANNELS 6 Xposition Yposition Zposition Zrotation Xrotation Yrotation
          JOINT BN_hand_L_01
          {
            OFFSET 10.1924 0 0
            CHANNELS 6 Xposition Yposition Zposition Zrotation Xrotation Yrotation
            JOINT BN_Finger_L_01
            {
              OFFSET 14.4623 0 0
              CHANNELS 6 Xposition Yposition Zposition Zrotation Xrotation Yrotation
              End Site
              {
                OFFSET 0 0 0
              }
            }
            JOINT BN_Finger_L_02
            {
              OFFSET 14.5949 1.43855 0.585071
              CHANNELS 6 Xposition Yposition Zposition Zrotation Xrotation Yrotation
              End Site
              {
                OFFSET 0 0 0
              }
            }
          }
        }
      }
      JOINT Bip01_R_Thigh
      {
        OFFSET -4.03411 -0.254132 -3.45377
        CHANNELS 6 Xposition Yposition Zposition Zrotation Xrotation Yrotation
        JOINT Bip01_R_Calf
        {
          OFFSET 3.92618 0 0
          CHANNELS 6 Xposition Yposition Zposition Zrotation Xrotation Yrotation
          JOINT Bip01_R_HorseLink
          {
            OFFSET 6.12319 0 0
            CHANNELS 6 Xposition Yposition Zposition Zrotation Xrotation Yrotation
            JOINT Bip01_R_Foot
            {
              OFFSET 9.94776 0 0
              CHANNELS 6 Xposition Yposition Zposition Zrotation Xrotation Yrotation
              JOINT Bip01_R_Toe3
              {
                OFFSET 0.881252 -0.110953 0.0158496
                CHANNELS 6 Xposition Yposition Zposition Zrotation Xrotation Yrotation
                JOINT Bip01_R_Toe31
                {
                  OFFSET 2.32137 0 0
                  CHANNELS 6 Xposition Yposition Zposition Zrotation Xrotation Yrotation
                  JOINT Bip01_R_Toe32
                  {
                    OFFSET 1.63293 0 0
                    CHANNELS 6 Xposition Yposition Zposition Zrotation Xrotation Yrotation
                    JOINT Bip01_R_Toe3Nub
                    {
                      OFFSET 1.72131 0 0
                      CHANNELS 6 Xposition Yposition Zposition Zrotation Xrotation Yrotation
                      End Site
                      {
                        OFFSET 0 0 0
                      }
                    }
                  }
                }
              }
              JOINT Bip01_R_Toe2
              {
                OFFSET 0.994751 0.967285 -1.09428
                CHANNELS 6 Xposition Yposition Zposition Zrotation Xrotation Yrotation
                JOINT Bip01_R_Toe21
                {
                  OFFSET 2.20201 0 0
                  CHANNELS 6 Xposition Yposition Zposition Zrotation Xrotation Yrotation
                  JOINT Bip01_R_Toe22
                  {
                    OFFSET 1.84925 0 0
                    CHANNELS 6 Xposition Yposition Zposition Zrotation Xrotation Yrotation
                    JOINT Bip01_R_Toe2Nub
                    {
                      OFFSET 1.70976 0 0
                      CHANNELS 6 Xposition Yposition Zposition Zrotation Xrotation Yrotation
                      End Site
                      {
                        OFFSET 0 0 0
                      }
                    }
                  }
                }
              }
              JOINT Bip01_R_Toe1
              {
                OFFSET 1.3748 1.34027 -0.0712419
                CHANNELS 6 Xposition Yposition Zposition Zrotation Xrotation Yrotation
                JOINT Bip01_R_Toe11
                {
                  OFFSET 2.26122 0 0
                  CHANNELS 6 Xposition Yposition Zposition Zrotation Xrotation Yrotation
                  JOINT Bip01_R_Toe12
                  {
                    OFFSET 2.22215 0 0
                    CHANNELS 6 Xposition Yposition Zposition Zrotation Xrotation Yrotation
                    JOINT Bip01_R_Toe1Nub
                    {
                      OFFSET 1.61867 0 0
                      CHANNELS 6 Xposition Yposition Zposition Zrotation Xrotation Yrotation
                      End Site
                      {
                        OFFSET 0 0 0
                      }
                    }
                  }
                }
              }
              JOINT Bip01_R_Toe0
              {
                OFFSET 1.40695 0.687986 0.883783
                CHANNELS 6 Xposition Yposition Zposition Zrotation Xrotation Yrotation
                JOINT Bip01_R_Toe01
                {
                  OFFSET 2.26828 0 0
                  CHANNELS 6 Xposition Yposition Zposition Zrotation Xrotation Yrotation
                  JOINT Bip01_R_Toe02
                  {
                    OFFSET 2.09769 0 0
                    CHANNELS 6 Xposition Yposition Zposition Zrotation Xrotation Yrotation
                    JOINT Bip01_R_Toe0Nub
                    {
                      OFFSET 1.53753 0 0
                      CHANNELS 6 Xposition Yposition Zposition Zrotation Xrotation Yrotation
                      End Site
                      {
                        OFFSET 0 0 0
                      }
                    }
                  }
                }
              }
            }
          }
        }
      }
      JOINT Bip01_L_Thigh
      {
        OFFSET -4.03411 -0.254147 3.45377
        CHANNELS 6 Xposition Yposition Zposition Zrotation Xrotation Yrotation
        JOINT Bip01_L_Calf
        {
          OFFSET 3.92616 0 0
          CHANNELS 6 Xposition Yposition Zposition Zrotation Xrotation Yrotation
          JOINT Bip01_L_HorseLink
          {
            OFFSET 6.1232 0 0
            CHANNELS 6 Xposition Yposition Zposition Zrotation Xrotation Yrotation
            JOINT Bip01_L_Foot
            {
              OFFSET 9.94775 0 0
              CHANNELS 6 Xposition Yposition Zposition Zrotation Xrotation Yrotation
              JOINT Bip01_L_Toe3
              {
                OFFSET 0.881246 -0.110986 -0.0157582
                CHANNELS 6 Xposition Yposition Zposition Zrotation Xrotation Yrotation
                JOINT Bip01_L_Toe31
                {
                  OFFSET 2.32136 0 0
                  CHANNELS 6 Xposition Yposition Zposition Zrotation Xrotation Yrotation
                  JOINT Bip01_L_Toe32
                  {
                    OFFSET 1.63293 0 0
                    CHANNELS 6 Xposition Yposition Zposition Zrotation Xrotation Yrotation
                    JOINT Bip01_L_Toe3Nub
                    {
                      OFFSET 1.7213 0 0
                      CHANNELS 6 Xposition Yposition Zposition Zrotation Xrotation Yrotation
                      End Site
                      {
                        OFFSET 0 0 0
                      }
                    }
                  }
                }
              }
              JOINT Bip01_L_Toe2
              {
                OFFSET 0.994649 0.967162 1.09447
                CHANNELS 6 Xposition Yposition Zposition Zrotation Xrotation Yrotation
                JOINT Bip01_L_Toe21
                {
                  OFFSET 2.202 0 0
                  CHANNELS 6 Xposition Yposition Zposition Zrotation Xrotation Yrotation
                  JOINT Bip01_L_Toe22
                  {
                    OFFSET 1.84926 0 0
                    CHANNELS 6 Xposition Yposition Zposition Zrotation Xrotation Yrotation
                    JOINT Bip01_L_Toe2Nub
                    {
                      OFFSET 1.70976 0 0
                      CHANNELS 6 Xposition Yposition Zposition Zrotation Xrotation Yrotation
                      End Site
                      {
                        OFFSET 0 0 0
                      }
                    }
                  }
                }
              }
              JOINT Bip01_L_Toe1
              {
                OFFSET 1.37483 1.34021 0.0715086
                CHANNELS 6 Xposition Yposition Zposition Zrotation Xrotation Yrotation
                JOINT Bip01_L_Toe11
                {
                  OFFSET 2.26124 0 0
                  CHANNELS 6 Xposition Yposition Zposition Zrotation Xrotation Yrotation
                  JOINT Bip01_L_Toe12
                  {
                    OFFSET 2.22214 0 0
                    CHANNELS 6 Xposition Yposition Zposition Zrotation Xrotation Yrotation
                    JOINT Bip01_L_Toe1Nub
                    {
                      OFFSET 1.61867 0 0
                      CHANNELS 6 Xposition Yposition Zposition Zrotation Xrotation Yrotation
                      End Site
                      {
                        OFFSET 0 0 0
                      }
                    }
                  }
                }
              }
              JOINT Bip01_L_Toe0
              {
                OFFSET 1.40707 0.688009 -0.883564
                CHANNELS 6 Xposition Yposition Zposition Zrotation Xrotation Yrotation
                JOINT Bip01_L_Toe01
                {
                  OFFSET 2.26828 0 0
                  CHANNELS 6 Xposition Yposition Zposition Zrotation Xrotation Yrotation
                  JOINT Bip01_L_Toe02
                  {
                    OFFSET 2.0977 0 0
                    CHANNELS 6 Xposition Yposition Zposition Zrotation Xrotation Yrotation
                    JOINT Bip01_L_Toe0Nub
                    {
                      OFFSET 1.53752 0 0
                      CHANNELS 6 Xposition Yposition Zposition Zrotation Xrotation Yrotation
                      End Site
                      {
                        OFFSET 0 0 0
                      }
                    }
                  }
                }
              }
            }
          }
        }
      }
      JOINT Bip01_Spine1
      {
        OFFSET 4.90674 -0.00437896 0
        CHANNELS 6 Xposition Yposition Zposition Zrotation Xrotation Yrotation
        JOINT Bip01_Neck
        {
          OFFSET 5.56447 -1.28357 0
          CHANNELS 6 Xposition Yposition Zposition Zrotation Xrotation Yrotation
          JOINT Bip01_Neck1
          {
            OFFSET 2.79308 -0.00219964 0
            CHANNELS 6 Xposition Yposition Zposition Zrotation Xrotation Yrotation
            JOINT Bip01_Head
            {
              OFFSET 2.79272 0 0
              CHANNELS 6 Xposition Yposition Zposition Zrotation Xrotation Yrotation
              JOINT BN_Mouth_01
              {
                OFFSET 4.19089 0.0665938 0
                CHANNELS 6 Xposition Yposition Zposition Zrotation Xrotation Yrotation
                End Site
                {
                  OFFSET 0 0 0
                }
              }
              JOINT Bip01_HeadNub
              {
                OFFSET 6.95118 0 0
                CHANNELS 6 Xposition Yposition Zposition Zrotation Xrotation Yrotation
                End Site
                {
                  OFFSET 0 0 0
                }
              }
            }
          }
        }
      }
    }
  }
}
MOTION
Frames:	3
Frame Time:	0.0333333
30.6079 120.762 -23.6381 110.572 -4.50828 -154.678 0 -1.81899e-012 0 -89.9988 1.9807 -89.9988 -5.52397 -0.332285 -1.42109e-014 20.8575 -0.93119 175.992 6.48885 -1.42109e-014 1.42109e-014 -24.4696 3.73655 -1.82216 7.0876 0 0 -35.0046 -0.215678 4.86599 4.03904 0.104693 2.85638e-012 -15.8261 2.26099 -1.26337 4.70928 -4.06846 -6.3488 -85.2211 -24.0518 76.8056 8.51611 0.000713349 -0.000734329 47.1521 -6.29605 -0.0775864 10.1924 7.58719e-011 -0.000551224 -30.0798 12.9363 0.823139 14.595 -1.43804 0.584467 -81.0928 6.1487 -3.67673 14.4623 -2.86111e-006 -0.00075674 0.684427 -20.0789 9.58061 2.905 -3.58667 5.56061 112.549 1.64856 -91.4629 8.51612 0 1.90735e-006 -43.6395 0.841275 -17.3479 10.1924 -1.90721e-006 0.000810622 46.2558 0.341474 -0.248326 14.4623 -0.00071335 -4.76813e-007 -1.79115 -3.80922 -2.24533 14.595 1.4379 0.585345 76.1773 -13.0911 4.87559 -3.93207 -1.33644 -3.31733 -51.2761 0.689452 -175.199 3.92617 4.76838e-007 0 -81.1322 -6.7427e-006 -1.94846e-005 6.1232 2.84218e-014 1.42109e-014 143.465 1.36876e-005 7.86133e-006 9.94776 2.28796e-012 -0.000690937 -55.5714 21.7647 4.0778 0.88124 -0.110943 0.0157327 130.614 -4.28498 178.285 2.32137 -1.19211e-007 -2.98023e-008 46.4406 1.89401e-006 1.61655e-006 1.63293 1.42111e-014 3.72529e-008 -19.618 -0.00587658 0.0165085 1.7213 0 5.96046e-008 -7.42541e-008 4.75837e-007 1.77418e-006 0.994576 0.967266 -1.09445 51.2729 -19.3564 20.0565 2.20201 -0.000802764 -5.9785e-011 36.9809 -0.012206 -0.036493 1.84925 0.00128748 -0.000774622 -30.2688 -1.9765e-005 2.30107e-006 1.70976 -2.38423e-007 -1.42109e-014 4.37759e-008 1.01065e-005 2.60565e-007 1.37476 1.34029 -0.0714734 58.3766 1.21055 -2.29762 2.26123 2.27376e-012 0.000721395 24.1621 -0.0124354 -0.0581266 2.22214 0.000571496 -0.00147084 -43.4958 -0.0116637 0.0292277 1.61867 0 -2.98023e-008 -7.6825e-008 1.93617e-007 -3.24693e-007 1.40705 0.688038 0.883567 64.8209 18.8281 -39.0317 2.26828 0.000533468 0.000620364 29.2015 -0.0105766 -0.0406167 2.0977 -0.000866187 -0.000881194 -55.0388 0.0062075 0.00322488 1.53753 1.42111e-014 4.76837e-007 -9.0689e-007 8.84473e-007 -6.7321e-007 -3.77944 -1.06381 3.58311 -117.974 -4.60493 173.015 3.92617 -4.76838e-007 2.84217e-014 -154.228 -5.77075e-006 -9.76066e-006 6.1232 -2.84218e-014 2.38419e-007 111.361 1.61241e-005 9.50337e-006 9.94776 5.81227e-012 -0.000835657 -48.7771 -14.114 -13.4533 0.881243 -0.110905 -0.015893 124.806 3.93566 -177.705 2.32137 0.00053597 -2.38412e-007 -0.397561 3.75596e-005 -0.00550881 1.63293 -2.98026e-008 -7.10543e-015 -36.2808 0.0107559 -0.0147709 1.72131 -1.42111e-014 -1.42109e-014 -179.961 0.00521012 0.00208966 0.994745 0.967368 1.09421 66.1146 13.5398 -24.1239 2.20201 2.93493e-011 0.000579118 40.0409 -0.0107797 -0.0295778 1.84925 -2.13166e-014 -1.42108e-014 -72.6411 -2.19011e-006 2.38098e-006 1.70976 4.76847e-007 0 -179.961 0.00758249 -0.00375859 1.37472 1.34035 0.0711432 62.7255 -1.23647 2.39287 2.26123 -1.19211e-007 -1.19209e-007 31.1828 5.92471e-006 6.92445e-006 2.22214 0 -1.42109e-014 -38.5073 7.91645e-006 8.6578e-006 1.61867 -2.38423e-007 -1.19209e-007 -179.961 -0.00405139 -0.00342271 1.40685 0.688048 -0.883866 71.0234 -11.4387 29.9774 2.26828 5.32913e-015 4.17232e-007 26.1651 -2.25142e-006 -7.55365e-008 2.0977 1.4211e-014 1.19209e-007 -61.0221 9.22151e-006 9.99574e-006 1.53752 2.13167e-014 4.76836e-007 -179.961 -0.00067118 -0.00279001 4.90559 -0.00448227 -0.000373381 4.58377 6.11951 0.632642 5.56282 -1.2833 -0.000294629 6.44691 -6.4022 3.76635 2.79231 -0.00231409 -0.000264153 16.0027 -0.676672 -3.6632 2.79273 0.000831605 2.97827e-008 49.5575 -1.45265 -4.34574 4.19086 0.0678292 0.000731468 176.184 0.0504151 179.994 6.95117 0.0020504 0.00119638 4.42873e-007 -2.77547e-008 1.00034e-005 
32.3005 120.89 -27.1441 109.093 -0.586143 -156.983 0 -1.81899e-012 0 -89.9988 1.98499 -89.9988 -5.52397 -0.332285 -1.42109e-014 21.2105 -0.881983 176.797 6.48885 1.42109e-014 1.42109e-014 -24.9891 3.50174 -1.18079 7.0876 -1.42109e-014 1.42109e-014 -35.5055 -0.204391 5.09455 4.039 0.105081 4.47642e-012 -15.8764 2.32251 -1.27605 4.71025 -4.06783 -6.34716 -85.245 -24.2014 76.3485 8.51611 0.000713349 -0.000734329 46.9451 -6.25299 -0.437894 10.1924 8.04691e-011 -0.000551224 -30.175 12.9902 0.331168 14.595 -1.43804 0.584467 -80.5153 8.40312 -6.87136 14.4623 -2.8611e-006 -0.00075674 1.56588 -21.2705 4.50686 2.89063 -3.59141 5.55321 112.498 2.61524 -92.4156 8.51612 1.77636e-014 1.90735e-006 -43.5828 0.907438 -17.3955 10.1924 -1.9072e-006 0.000810622 46.2949 0.301192 -0.835553 14.4623 -0.00071335 -4.76817e-007 -0.733178 -4.41371 -8.01317 14.595 1.4379 0.585345 77.0013 -15.2677 0.872139 -3.93116 -1.34509 -3.31493 -50.2964 1.05747 -175.212 3.92617 4.76838e-007 0 -80.1095 -6.42555e-006 -1.87579e-005 6.1232 -2.84218e-014 2.13163e-014 144.485 1.35583e-005 8.59357e-006 9.94777 5.25804e-012 -0.000690937 -55.676 22.2676 3.62144 0.88124 -0.110943 0.0157327 130.298 -4.26941 178.265 2.32137 -1.19211e-007 -2.98024e-008 46.4406 -8.37269e-006 -3.71651e-006 1.63293 -1.42111e-014 3.72529e-008 -19.2347 -0.00758176 0.021749 1.7213 0 5.96047e-008 -7.42541e-008 4.75837e-007 1.77418e-006 0.994576 0.967266 -1.09445 51.5909 -19.2462 20.1609 2.20201 -0.000802764 -6.46523e-011 36.9809 -0.0122077 -0.0364932 1.84925 0.00128748 -0.000774622 -30.2688 -1.84219e-005 3.33165e-006 1.70976 -2.38423e-007 1.42109e-014 4.37759e-008 1.01065e-005 2.60565e-007 1.37476 1.34029 -0.0714734 58.7018 1.19663 -2.30493 2.26123 1.55611e-011 0.000721395 24.1621 -0.0124344 -0.0581262 2.22214 0.000571496 -0.00147084 -43.4958 -0.0116647 0.0292264 1.61867 0 -2.98023e-008 -7.68251e-008 1.93617e-007 -3.24693e-007 1.40705 0.688038 0.883567 65.0861 18.6255 -39.1172 2.26828 0.000533468 0.000620364 29.2014 -0.010577 -0.0406158 2.0977 -0.000866187 -0.000881194 -55.0388 0.00620883 0.00322399 1.53753 2.84223e-014 4.76837e-007 -9.0689e-007 8.84473e-007 -6.7321e-007 -3.7771 -1.06501 3.5852 -118.068 -4.42491 172.908 3.92617 -4.76838e-007 1.42109e-014 -154.644 -1.88891e-006 -1.88673e-006 6.1232 0 2.38419e-007 111.819 6.97554e-006 1.32217e-005 9.94776 5.19409e-012 -0.000835657 -48.4708 -14.2589 -13.1902 0.881243 -0.110905 -0.015893 124.48 3.91677 -177.687 2.32137 0.00053597 -2.38406e-007 -0.427587 0.000243467 -0.0327194 1.63293 -2.98027e-008 7.10543e-015 -35.9958 0.0132857 -0.0183609 1.72131 0 0 -179.961 0.00521006 0.00208964 0.994745 0.967368 1.09421 66.5582 13.3452 -24.2274 2.20201 3.61635e-011 0.000579118 40.0409 -0.0107796 -0.0295774 1.84925 2.13166e-014 1.42108e-014 -72.6411 -1.35712e-006 1.86803e-006 1.70976 4.76847e-007 4.26325e-014 -179.961 0.00758249 -0.00375859 1.37472 1.34035 0.0711432 63.1982 -1.21607 2.40329 2.26123 -1.19211e-007 -1.19209e-007 31.1828 5.45879e-006 6.92573e-006 2.22214 0 2.13163e-014 -38.5073 2.41686e-006 1.64317e-005 1.61867 -2.38423e-007 -1.19209e-007 -179.961 -0.00405139 -0.00342271 1.40685 0.688048 -0.883866 71.4404 -11.2023 30.0594 2.26828 -5.32913e-015 4.17232e-007 26.1651 -2.3092e-006 -9.22313e-009 2.0977 0 1.19209e-007 -61.0221 1.55295e-006 1.46623e-005 1.53752 0 4.76836e-007 -179.961 -0.00067118 -0.00279001 4.90559 -0.00448227 -0.00037338 4.44909 6.18117 0.644966 5.56282 -1.2833 -0.000294526 6.64928 -6.45745 3.78589 2.79231 -0.00231409 -0.000264153 15.1387 -0.62309 -3.67162 2.79273 0.000831605 2.97991e-008 48.4745 -1.28522 -4.35223 4.19086 0.0678292 0.000731468 176.172 0.0308228 179.995 6.95117 0.0020504 0.00119638 4.42873e-007 -2.77545e-008 1.00034e-005 
33.5882 121.087 -30.8528 107.78 3.38675 -159.377 0 -1.81899e-012 -7.10543e-015 -89.9989 1.98936 -89.9988 -5.52397 -0.332285 -1.42109e-014 21.518 -0.829474 177.602 6.48885 -4.26326e-014 1.42109e-014 -25.4558 3.26273 -0.526144 7.0876 0 -1.42109e-014 -36.0124 -0.196587 5.3166 4.03896 0.105453 3.43903e-012 -15.9224 2.3828 -1.28937 4.71121 -4.0672 -6.34554 -85.2703 -24.3458 75.8875 8.51611 0.000713349 -0.000734329 46.7382 -6.20985 -0.777992 10.1924 8.5848e-011 -0.000551224 -30.2679 13.0472 -0.13262 14.595 -1.43804 0.584467 -79.5497 10.6792 -10.5961 14.4623 -2.8611e-006 -0.00075674 2.39673 -22.2448 -1.14385 2.8765 -3.59606 5.54593 112.453 3.52172 -93.3804 8.51612 0 1.90735e-006 -43.5213 0.974561 -17.4385 10.1924 -1.9072e-006 0.000810622 46.3276 0.261858 -1.37042 14.4623 -0.00071335 -4.76822e-007 0.218557 -5.03539 -14.0021 14.595 1.4379 0.585345 77.594 -17.4291 -3.37897 -3.93053 -1.35269 -3.31251 -49.345 1.41593 -175.229 3.92617 4.76838e-007 0 -79.1172 -1.47651e-005 -1.62641e-005 6.1232 0 0 145.456 1.40113e-005 8.81444e-006 9.94777 9.46447e-012 -0.000690937 -55.7691 22.7393 3.16666 0.88124 -0.110943 0.0157327 130 -4.24587 178.25 2.32137 -1.19211e-007 -2.98023e-008 46.4406 -1.34248e-005 -3.63914e-007 1.63293 1.42111e-014 3.72529e-008 -18.9293 -0.0073281 0.0213842 1.7213 0 5.96046e-008 -7.4254e-008 4.75837e-007 1.77418e-006 0.994576 0.967266 -1.09445 51.9031 -19.1375 20.2629 2.20201 -0.000802764 -6.85673e-011 36.9809 -0.0122098 -0.0364933 1.84925 0.00128748 -0.000774621 -30.2688 -1.68312e-005 4.47715e-006 1.70976 -2.38423e-007 1.42109e-014 4.37759e-008 1.01065e-005 2.60565e-007 1.37476 1.34029 -0.0714734 59.0057 1.18433 -2.3101 2.26123 2.97863e-011 0.000721395 24.1621 -0.0124332 -0.0581258 2.22214 0.000571496 -0.00147084 -43.4958 -0.0116659 0.029225 1.61867 -7.10554e-015 -2.98023e-008 -7.68251e-008 1.93617e-007 -3.24693e-007 1.40705 0.688038 0.883567 65.3447 18.4268 -39.2003 2.26828 0.000533468 0.000620364 29.2015 -0.0105775 -0.040615 2.0977 -0.000866187 -0.000881194 -55.0388 0.0062102 0.00322315 1.53753 2.84223e-014 4.76837e-007 -9.0689e-007 8.84473e-007 -6.7321e-007 -3.77512 -1.06491 3.58727 -118.159 -4.24863 172.803 3.92617 -4.76838e-007 4.26326e-014 -155.036 -5.3865e-006 -9.72704e-006 6.1232 1.42109e-014 2.38419e-007 112.258 7.5445e-006 1.329e-005 9.94776 4.72513e-012 -0.000835657 -48.1709 -14.396 -12.9292 0.881243 -0.110905 -0.015893 124.182 3.9341 -177.649 2.32137 0.00053597 -2.38399e-007 -0.455631 0.000464731 -0.0585363 1.63293 -2.98026e-008 -7.10543e-015 -35.7177 0.0154767 -0.0215746 1.72131 2.84221e-014 1.42109e-014 -179.961 0.00521003 0.00208963 0.994745 0.967368 1.09421 66.9705 13.1658 -24.3213 2.20201 4.22706e-011 0.000579118 40.0409 -0.0107794 -0.029577 1.84925 -7.10553e-015 0 -72.6411 -9.8692e-007 1.38245e-006 1.70976 4.76847e-007 0 -179.961 0.00758249 -0.00375859 1.37472 1.34035 0.0711431 63.64 -1.19762 2.41254 2.26123 -1.19211e-007 -1.19209e-007 31.1828 5.00316e-006 6.90271e-006 2.22214 7.10552e-015 -2.13163e-014 -38.5073 2.85573e-006 1.67391e-005 1.61867 -2.38423e-007 -1.19209e-007 -179.961 -0.00405139 -0.00342271 1.40685 0.688048 -0.883866 71.8284 -10.9828 30.1336 2.26828 0 4.17232e-007 26.1651 -2.34166e-006 4.37801e-008 2.0977 0 1.19209e-007 -61.0221 2.20022e-006 1.45966e-005 1.53752 0 4.76836e-007 -179.961 -0.00067118 -0.00279001 4.90559 -0.00448227 -0.000373377 4.23222 6.25104 0.663238 5.56282 -1.2833 -0.000294323 6.76507 -6.52816 3.7973 2.79231 -0.00231409 -0.000264153 14.0312 -0.55662 -3.68126 2.79273 0.000831605 2.9821e-008 47.4358 -1.08146 -4.38615 4.19086 0.0678292 0.000731468 176.161 0.0124359 179.996 6.95117 0.0020504 0.00119638 4.42873e-007 -2.77543e-008 1.00034e-005 
